# xmcd CD database file
#
# Track frame offsets:
#	150
#	44587
#	68850
#	100650
#	146662
#	193425
#
# Disc length: 3352 seconds
#
# Revision: 0
# Processed by: cddbd v1.5PL3 Copyright (c) Steve Scherf et al.
# Submitted via: CDex 1.51
#
DISCID=5b0d1606
DTITLE=Lello Molinari Quintet - On a Boston Night
DYEAR=1995
DGENRE=Jazz
TTITLE0=There's Snow Place Like Home
TTITLE1=First Dance
TTITLE2=The Mingus I Knew
TTITLE3=Echoes of Rome
TTITLE4=Hey, Open Up!
TTITLE5=Nothing Cheap
EXTD=YEAR: 1995
EXTT0=
EXTT1=
EXTT2=
EXTT3=
EXTT4=
EXTT5=
PLAYORDER=
